{
	"asset":{
		"copyright":"MNS",
		"generator":"Khronos glTF Blender I/O v3.5.30",
		"version":"2.0"
	},
	"scene":0,
	"scenes":[
		{
			"name":"Scene",
			"nodes":[
				0
			]
		}
	],
	"nodes":[
		{
			"mesh":0,
			"name":"Curve",
			"scale":[
				890.9063720703125,
				890.9063720703125,
				890.9063720703125
			]
		}
	],
	"materials":[
		{
			"doubleSided":true,
			"name":"Mat\u00e9riau",
			"pbrMetallicRoughness":{
				"baseColorFactor":[
					0.800000011920929,
					0.800000011920929,
					0.800000011920929,
					1
				],
				"metallicFactor":0,
				"roughnessFactor":0.5
			}
		}
	],
	"meshes":[
		{
			"name":"Curve",
			"primitives":[
				{
					"attributes":{
						"POSITION":0,
						"TEXCOORD_0":1,
						"NORMAL":2
					},
					"indices":3,
					"material":0
				}
			]
		}
	],
	"accessors":[
		{
			"bufferView":0,
			"componentType":5126,
			"count":1668,
			"max":[
				0.03835345432162285,
				0.011940264143049717,
				0.011195854283869267
			],
			"min":[
				-0.03357827290892601,
				0,
				-0.00901739951223135
			],
			"type":"VEC3"
		},
		{
			"bufferView":1,
			"componentType":5126,
			"count":1668,
			"type":"VEC2"
		},
		{
			"bufferView":2,
			"componentType":5126,
			"count":1668,
			"type":"VEC3"
		},
		{
			"bufferView":3,
			"componentType":5123,
			"count":9972,
			"type":"SCALAR"
		}
	],
	"bufferViews":[
		{
			"buffer":0,
			"byteLength":20016,
			"byteOffset":0,
			"target":34962
		},
		{
			"buffer":0,
			"byteLength":13344,
			"byteOffset":20016,
			"target":34962
		},
		{
			"buffer":0,
			"byteLength":20016,
			"byteOffset":33360,
			"target":34962
		},
		{
			"buffer":0,
			"byteLength":19944,
			"byteOffset":53376,
			"target":34963
		}
	],
	"buffers":[
		{
			"byteLength":73320,
			"uri":"data:application/octet-stream;base64,"
		}
	]
}
